<mxfile host="Electron" modified="2023-07-22T11:11:56.369Z" agent="Mozilla/5.0 (Macintosh; Intel Mac OS X 10_15_7) AppleWebKit/537.36 (KHTML, like Gecko) draw.io/21.6.1 Chrome/112.0.5615.204 Electron/24.6.1 Safari/537.36" etag="-RgfBdCpg7EqFRekbC-v" version="21.6.1" type="device">
  <diagram name="Page-1" id="AIuEO_MXCATZLXjkAG9t">
    <mxGraphModel dx="2074" dy="1122" grid="1" gridSize="10" guides="1" tooltips="1" connect="1" arrows="1" fold="1" page="1" pageScale="1" pageWidth="827" pageHeight="1169" math="0" shadow="0">
      <root>
        <mxCell id="0" />
        <mxCell id="1" parent="0" />
        <mxCell id="dS75kYlAj8JRSDvo8-uy-1" style="edgeStyle=orthogonalEdgeStyle;rounded=0;orthogonalLoop=1;jettySize=auto;html=1;dashed=1;fontSize=16;" parent="1" source="Fmyp4jBVjyvhrkrw46Uf-1" target="NfZsoAEmL5FZV4OTpbK5-7" edge="1">
          <mxGeometry relative="1" as="geometry">
            <Array as="points">
              <mxPoint x="480" y="220" />
              <mxPoint x="679" y="220" />
            </Array>
          </mxGeometry>
        </mxCell>
        <mxCell id="NfZsoAEmL5FZV4OTpbK5-6" value="CI Server" style="points=[[0,0],[0.25,0],[0.5,0],[0.75,0],[1,0],[1,0.25],[1,0.5],[1,0.75],[1,1],[0.75,1],[0.5,1],[0.25,1],[0,1],[0,0.75],[0,0.5],[0,0.25]];outlineConnect=0;gradientColor=none;html=1;whiteSpace=wrap;fontSize=16;fontStyle=0;container=0;pointerEvents=0;collapsible=0;recursiveResize=0;shape=mxgraph.aws4.group;grIcon=mxgraph.aws4.group_on_premise;strokeColor=#5A6C86;fillColor=none;verticalAlign=top;align=left;spacingLeft=30;fontColor=#5A6C86;dashed=0;labelBackgroundColor=default;fontFamily=Helvetica;" parent="1" vertex="1">
          <mxGeometry x="30" y="30" width="780" height="580" as="geometry" />
        </mxCell>
        <mxCell id="NfZsoAEmL5FZV4OTpbK5-7" value="&lt;font style=&quot;font-size: 16px;&quot;&gt;Docker Engine&lt;br style=&quot;font-size: 16px;&quot;&gt;installed on the CI server&lt;/font&gt;" style="image;sketch=0;aspect=fixed;html=1;points=[];align=center;fontSize=16;image=img/lib/mscae/Docker.svg;labelPosition=center;verticalLabelPosition=bottom;verticalAlign=top;labelBackgroundColor=default;fontFamily=Helvetica;container=0;spacingBottom=0;spacingLeft=0;spacingTop=13;" parent="1" vertex="1">
          <mxGeometry x="642.8299999999999" y="80" width="73.17" height="60" as="geometry" />
        </mxCell>
        <mxCell id="NfZsoAEmL5FZV4OTpbK5-40" style="edgeStyle=orthogonalEdgeStyle;rounded=0;orthogonalLoop=1;jettySize=auto;html=1;startArrow=classic;startFill=1;fontSize=16;labelBackgroundColor=default;fontFamily=Helvetica;" parent="1" source="NfZsoAEmL5FZV4OTpbK5-19" target="NfZsoAEmL5FZV4OTpbK5-27" edge="1">
          <mxGeometry relative="1" as="geometry" />
        </mxCell>
        <mxCell id="NfZsoAEmL5FZV4OTpbK5-41" value="HTTP" style="edgeLabel;html=1;align=center;verticalAlign=middle;resizable=0;points=[];fontSize=16;labelBackgroundColor=default;fontFamily=Helvetica;container=0;" parent="NfZsoAEmL5FZV4OTpbK5-40" vertex="1" connectable="0">
          <mxGeometry x="0.0814" y="1" relative="1" as="geometry">
            <mxPoint x="-14" y="1" as="offset" />
          </mxGeometry>
        </mxCell>
        <mxCell id="NfZsoAEmL5FZV4OTpbK5-19" value="&lt;b&gt;TomodachiContainer&lt;br&gt;&lt;/b&gt;(testcontainer)&lt;span style=&quot;font-size: 16px;&quot;&gt;&lt;br style=&quot;font-size: 16px;&quot;&gt;&lt;/span&gt;" style="outlineConnect=0;dashed=0;verticalLabelPosition=bottom;verticalAlign=top;align=center;html=1;shape=mxgraph.aws3.ec2_compute_container_2;fillColor=#F58534;gradientColor=none;fontSize=16;labelBackgroundColor=default;fontFamily=Helvetica;container=0;" parent="1" vertex="1">
          <mxGeometry x="240" y="470" width="60" height="34.5" as="geometry" />
        </mxCell>
        <mxCell id="NfZsoAEmL5FZV4OTpbK5-36" style="edgeStyle=orthogonalEdgeStyle;rounded=0;orthogonalLoop=1;jettySize=auto;html=1;fontSize=16;labelBackgroundColor=default;fontFamily=Helvetica;entryX=0.5;entryY=0;entryDx=0;entryDy=0;exitX=1;exitY=0.5;exitDx=0;exitDy=0;" parent="1" source="NfZsoAEmL5FZV4OTpbK5-56" target="Fmyp4jBVjyvhrkrw46Uf-1" edge="1">
          <mxGeometry relative="1" as="geometry">
            <mxPoint x="476" y="490" as="targetPoint" />
            <mxPoint x="476" y="384.5" as="sourcePoint" />
          </mxGeometry>
        </mxCell>
        <mxCell id="NfZsoAEmL5FZV4OTpbK5-37" value="&lt;span style=&quot;font-size: 16px;&quot;&gt;$ pytest -v&amp;nbsp;--cov=src&lt;/span&gt;" style="edgeLabel;html=1;align=center;verticalAlign=middle;resizable=0;points=[];fontSize=16;labelBackgroundColor=default;fontFamily=Helvetica;container=0;" parent="NfZsoAEmL5FZV4OTpbK5-36" vertex="1" connectable="0">
          <mxGeometry x="0.2271" relative="1" as="geometry">
            <mxPoint y="27" as="offset" />
          </mxGeometry>
        </mxCell>
        <mxCell id="NfZsoAEmL5FZV4OTpbK5-27" value="&lt;b&gt;LocalStackContiner&lt;br style=&quot;font-size: 16px;&quot;&gt;&lt;/b&gt;localstack/localstack:2.2.0&lt;br style=&quot;font-size: 16px;&quot;&gt;(testcontainer)" style="outlineConnect=0;dashed=0;verticalLabelPosition=bottom;verticalAlign=top;align=center;html=1;shape=mxgraph.aws3.ec2_compute_container_3;fillColor=#F58534;gradientColor=none;fontSize=16;labelBackgroundColor=default;fontFamily=Helvetica;container=0;" parent="1" vertex="1">
          <mxGeometry x="660" y="470" width="60" height="34.5" as="geometry" />
        </mxCell>
        <mxCell id="NfZsoAEmL5FZV4OTpbK5-42" style="edgeStyle=orthogonalEdgeStyle;rounded=0;orthogonalLoop=1;jettySize=auto;html=1;entryX=0.5;entryY=0;entryDx=0;entryDy=0;entryPerimeter=0;dashed=1;fontSize=16;labelBackgroundColor=default;fontFamily=Helvetica;exitX=0;exitY=0.5;exitDx=0;exitDy=0;" parent="1" source="Fmyp4jBVjyvhrkrw46Uf-1" target="NfZsoAEmL5FZV4OTpbK5-19" edge="1">
          <mxGeometry relative="1" as="geometry">
            <mxPoint x="435" y="271.5999999999999" as="sourcePoint" />
          </mxGeometry>
        </mxCell>
        <mxCell id="NfZsoAEmL5FZV4OTpbK5-44" value="&lt;span style=&quot;font-size: 16px;&quot;&gt;$ docker run&lt;/span&gt;" style="edgeLabel;html=1;align=center;verticalAlign=middle;resizable=0;points=[];fontSize=16;labelBackgroundColor=default;fontFamily=Helvetica;container=0;" parent="NfZsoAEmL5FZV4OTpbK5-42" vertex="1" connectable="0">
          <mxGeometry x="-0.0721" y="-1" relative="1" as="geometry">
            <mxPoint x="1" y="35" as="offset" />
          </mxGeometry>
        </mxCell>
        <mxCell id="NfZsoAEmL5FZV4OTpbK5-43" style="edgeStyle=orthogonalEdgeStyle;rounded=0;orthogonalLoop=1;jettySize=auto;html=1;entryX=0.5;entryY=0;entryDx=0;entryDy=0;entryPerimeter=0;dashed=1;fontSize=16;labelBackgroundColor=default;fontFamily=Helvetica;exitX=1;exitY=0.5;exitDx=0;exitDy=0;" parent="1" source="Fmyp4jBVjyvhrkrw46Uf-1" target="NfZsoAEmL5FZV4OTpbK5-27" edge="1">
          <mxGeometry relative="1" as="geometry">
            <mxPoint x="525" y="271.5999999999999" as="sourcePoint" />
          </mxGeometry>
        </mxCell>
        <mxCell id="NfZsoAEmL5FZV4OTpbK5-45" value="&lt;span style=&quot;font-size: 16px;&quot;&gt;$ docker run&lt;/span&gt;" style="edgeLabel;html=1;align=center;verticalAlign=middle;resizable=0;points=[];fontSize=16;labelBackgroundColor=default;fontFamily=Helvetica;container=0;" parent="NfZsoAEmL5FZV4OTpbK5-43" vertex="1" connectable="0">
          <mxGeometry x="-0.0465" y="2" relative="1" as="geometry">
            <mxPoint x="-2" y="30" as="offset" />
          </mxGeometry>
        </mxCell>
        <mxCell id="NfZsoAEmL5FZV4OTpbK5-50" style="rounded=0;orthogonalLoop=1;jettySize=auto;html=1;entryX=1;entryY=0;entryDx=0;entryDy=0;entryPerimeter=0;fontSize=16;fontFamily=Helvetica;exitX=0.25;exitY=1;exitDx=0;exitDy=0;" parent="1" source="Fmyp4jBVjyvhrkrw46Uf-1" target="NfZsoAEmL5FZV4OTpbK5-19" edge="1">
          <mxGeometry relative="1" as="geometry">
            <mxPoint x="291" y="470" as="targetPoint" />
            <mxPoint x="437" y="310" as="sourcePoint" />
          </mxGeometry>
        </mxCell>
        <mxCell id="NfZsoAEmL5FZV4OTpbK5-52" value="HTTP&amp;nbsp;" style="edgeLabel;html=1;align=center;verticalAlign=middle;resizable=0;points=[];fontSize=16;fontFamily=Helvetica;container=0;" parent="NfZsoAEmL5FZV4OTpbK5-50" vertex="1" connectable="0">
          <mxGeometry x="0.2648" y="2" relative="1" as="geometry">
            <mxPoint x="-7" y="-4" as="offset" />
          </mxGeometry>
        </mxCell>
        <mxCell id="NfZsoAEmL5FZV4OTpbK5-51" style="rounded=0;orthogonalLoop=1;jettySize=auto;html=1;entryX=0;entryY=0;entryDx=0;entryDy=0;entryPerimeter=0;fontSize=16;fontFamily=Helvetica;exitX=0.75;exitY=1;exitDx=0;exitDy=0;" parent="1" source="Fmyp4jBVjyvhrkrw46Uf-1" target="NfZsoAEmL5FZV4OTpbK5-27" edge="1">
          <mxGeometry relative="1" as="geometry">
            <mxPoint x="483" y="293" as="sourcePoint" />
          </mxGeometry>
        </mxCell>
        <mxCell id="NfZsoAEmL5FZV4OTpbK5-53" value="HTTP" style="edgeLabel;html=1;align=center;verticalAlign=middle;resizable=0;points=[];fontSize=16;fontFamily=Helvetica;container=0;" parent="NfZsoAEmL5FZV4OTpbK5-51" vertex="1" connectable="0">
          <mxGeometry x="0.167" y="-1" relative="1" as="geometry">
            <mxPoint x="6" y="5" as="offset" />
          </mxGeometry>
        </mxCell>
        <mxCell id="NfZsoAEmL5FZV4OTpbK5-56" value="GitHub Actions&#xa;Test stage" style="shape=image;verticalLabelPosition=bottom;labelBackgroundColor=default;verticalAlign=top;aspect=fixed;imageAspect=0;image=data:image/png,iVBORw0KGgoAAAANSUhEUgAAAOEAAADjCAYAAABze3NxAAAABGdBTUEAALGPC/xhBQAAACBjSFJNAAB6JgAAgIQAAPoAAACA6AAAdTAAAOpgAAA6mAAAF3CculE8AAAAbmVYSWZNTQAqAAAACAACARIAAwAAAAEAAQAAh2kABAAAAAEAAAAmAAAAAAAEkoYABwAAABIAAABcoAEAAwAAAAEAAQAAoAIABAAAAAEAAADhoAMABAAAAAEAAADjAAAAAEFTQ0lJAAAAU2NyZWVuc2hvdEZi6E4AAAJraVRYdFhNTDpjb20uYWRvYmUueG1wAAAAAAA8eDp4bXBtZXRhIHhtbG5zOng9ImFkb2JlOm5zOm1ldGEvIiB4OnhtcHRrPSJYTVAgQ29yZSA2LjAuMCI+CiAgIDxyZGY6UkRGIHhtbG5zOnJkZj0iaHR0cDovL3d3dy53My5vcmcvMTk5OS8wMi8yMi1yZGYtc3ludGF4LW5zIyI+CiAgICAgIDxyZGY6RGVzY3JpcHRpb24gcmRmOmFib3V0PSIiCiAgICAgICAgICAgIHhtbG5zOmV4aWY9Imh0dHA6Ly9ucy5hZG9iZS5jb20vZXhpZi8xLjAvIgogICAgICAgICAgICB4bWxuczp0aWZmPSJodHRwOi8vbnMuYWRvYmUuY29tL3RpZmYvMS4wLyI+CiAgICAgICAgIDxleGlmOkNvbG9yU3BhY2U+MTwvZXhpZjpDb2xvclNwYWNlPgogICAgICAgICA8ZXhpZjpQaXhlbFlEaW1lbnNpb24+MjI3PC9leGlmOlBpeGVsWURpbWVuc2lvbj4KICAgICAgICAgPGV4aWY6VXNlckNvbW1lbnQ+U2NyZWVuc2hvdDwvZXhpZjpVc2VyQ29tbWVudD4KICAgICAgICAgPGV4aWY6UGl4ZWxYRGltZW5zaW9uPjIyNTwvZXhpZjpQaXhlbFhEaW1lbnNpb24+CiAgICAgICAgIDx0aWZmOk9yaWVudGF0aW9uPjE8L3RpZmY6T3JpZW50YXRpb24+CiAgICAgIDwvcmRmOkRlc2NyaXB0aW9uPgogICA8L3JkZjpSREY+CjwveDp4bXBtZXRhPgoh9XQmAAAwRUlEQVR4Ae19C3gURbr258HlTgZyIwkJJCEkAQUBQUAQEBAV5S4iCKseZVd33T2eo+dwVv/FR/7VX3fX/eHX47qL54EjogKKIBddFAXkKhiQAIYQkpAbuUPCHYn+9XYcmAwzVdU93dM9k/qeBzLTVV2Xt/ubqvqu1/3IiBQpBBQCtiHwT7b1rDpWCCgENAQUE6oXQSFgMwKKCW1+AKp7hYBiQvUOKARsRuB6m/vndn/m3Hk6VFBF2cfKqbjNLVRSR1RST3TuEvvLPntTpzZEEa2J4jsQdetEFFe3jXolx9LNmYkU5WrrXV19Vwg4AoHrnCYd3X2oiDbnNdDu+hQ6UE7U8IM5OCW6iAZ3JRrS9iCNvaU7tW/LOFaRQsABCDiCCfcfLaNV+87RZ9VpVH7aelRasfV/RArRPTGHadytGXR9ixbWd6p6UAj4QcA2Jrzc0EAfbT5ES0v6UDZb8eyimHZE05MLadagCOocE2nXMFS/zRiBoDMhmG/V11X0RnYcHT/pHOSxOt6flEe/vj1SMaNzHkuzGElQmXDT3jz6P/vT6FiNc7GNaEX0z+nH6Zej46l1q5bOHagaWdggEBQmrKiqpRe2R9InR0IHt+5RRC/cUkhD+ySHzqDVSEMSAcuZcH1WFT27NYbqL4YkPjSz21H6/eRualUMzccXEqO2jAkvXLxEz39QSCtK0k0BAttErE74F12zWdP7tWt9dbt4mekyyqrr6XTnkZoO8UgVmSZp7RVL9NroMkrtmmDKXFQjCgFPBCxhQmw/52yIDEjq2Zbx1+juTK/Xej8N6JlIPZKiPcct9bmm7hxB77i9qAVtr+8RkCAIPwIL76ilkTcoCaoU+KqSNAKmM2FufjE99GmSoVWoBTOiG9uD6N7YHBp1c6rpW8CD+eVMH3mWVpd2p5PnpTG6UhHje35QGc0erlbEK6CoDwEjYCoT7jlWR79c79L9grvVA4/fHksJMREBT0rUALbKq/bW0N8PxRtaHZ8dUEJzRieKulHlCgEpBExjQjDgwx+7NLtOqZ5ZJaws05OO0m9HR9mim4POcsWuSlqwL56qzsqOurGeYkR9eKna/hEwhQmxBX1gXZKuFbAf29G9dFslZTIDa7uprv4M/XHDCXr3ONsL6yDFiDrAUlX9IhAwE0IIM2llpPQZEKvfU32K6PExXRxns7n9QCE9sy1Zei5A9fU7quie/jF+AVYFCgERAgExIc5W97/fUloKCjvNN8aU0ADmWuRUqjlZR09/7qIt+XIjhBR3+cRyujE1Tu4GVUsh4IUAW5eME/SAssbX0LWtnV7raAYEElGdXPTWlAZNSS+DDHwbn9gYR9jSKlIIGEHAMBPCEkZWET+ALXzLp5+3RfhiBBS4Nr34QA+a279Y6nY4GP/ui/ZSdVUlhYA3AoaYsLS80RTNuzFf38GAiyefD0kn2sfvSCIIX2QIdrGrdlfIVFV1FAJNEDDEhC/ukrMFxRY0VBnQjRL0gXPS5Q6If9jdmXCmVKQQ0IOAbsEM3JEe25Qm7ANCGJwB9TrKQtr6/p7TtKWmm+byBMNvtAWVxhjXAZo88gZbpKq//ZjN5zvhtGn6TUQv3yWup2ooBNwI6GJCKLfvWtxC6A8INcT74/VLQRdtKqEFBxK5Cn8EcHphYD6N6JfqnkNQ/iLo1NT321Bulbi7tdOUtFSMkqrhRkDXdhQe8TIOudAD6lVDzFuRRy/t5TMgBg1v/Ic3ptK/b6Cgbv0QGGrhqEqCiZ2IXt6j1BUijFT5VQSkmRCrIEJSiAjbRiji9dCbnxXT0gLxFtezzQ+yie5Y6qIVO4MXoAbWPU/1EUtMtxcS7c2RE+h4zkl9bp4ISDMhgjKJYsJgGwpTND3Ry3AGXHAgyRD68ISYuzWOZrxHlF9Wa6gNvTc9NiqB0iUMZBYddq5Bgt45q/rWIiDNhIiKJiIYY+u1BV2yo44uXha1zC/fVUQ07r1IWrjhOGHFtpLwAzNvQKGwi03HiIoqTgnrqQoKASkmRFxQkWUMzkrwhtBLW2tZAFATCIy8ILubJjiyeiuIuDOjmMMxjxC0+J0dwVmdeeNQZc5HQIoJEZhXRAgXqFcdgTaPVIta1lcOwdG0NYk0d1mupaZkv7mpTDiwtSdShXVUBYWAFBMiMjaPcBaEQ64REoW5781kQWhfL8Gk7o632xPM66ygvj0SCNZAPEI0cYTXUKQQ4CEgfL3xEolC0yMkhVUe8TPi99PqqeWasp43EV9lcNR98rMYevQDptooMV+KOqPLQV/dNrm2/hCz8FakEOAgIGRCJGcREWLCWElwE1oxs0Gz44TrkF76gglJxq2MIxgDmCm4GTcknUTj2XqKv4vQOxdVP/wQEDIhsiPxCC8hgjJZTZBKwo5z44wqLRiU3v7gcgRjgCnvtCAImswgROjGLoBHUOsoKSkPIVXGZUKYaiE9GY8QljCY4eK7xMXQ36Y0erTHsTyEeglS3vtWJ9D8D48R5hco3e46LGxi98EiYR1VofkiwGVCJOgUCU4QF9QOQkiJT2ed0Zxv9QpuMKfFed3p7rfb0OfZgSXGGHFTV+H0s2tUglIhSM24ApcJkSFXRAjMaxe5ItprzrcwFpexYvEeJ5xx52yIol+tJoLljhHCGOCyxaOjDepcyMOnuZdxmRApqnmEqNRGImPz2jRSBmPx9Q810NN9i6QMrL37gEPu3cziBmEbjVDveP5dMkbv/BZUaTgjwGVCX3nhPcFAXginEAQ3T97Zlf4xvZyGJusfFexQETc1p7BS983J53dx74GqxIzzJ7cTVRiyCPCZsJ4/LycxoXuk3RLj6J3pRK+OrKBOOtPSQ4L6H1tidasxUhPE+SkqTwUuBHLPUf0NLwS4TIiXkkfIjuRUmjKoM3358Bm6r7e+EUJ6umEH25/qoKTOHYW1y6oEv2jCFlSFcEWAy4Si7WiUy9lSPwhN/jSOGVLfXailVJN9iJ/W9JKtqtVr10ZsQXDx+wBdRXSNSFUOJQS4TCiaiGd+QFFdO8vh9bBu9iV6PLNAyg51b4m+0SZEixWWlbUqLqk+VJtP7YCYMJRggkHB3Ikp9MkD1UJ1ht7kMHqcmEMJMzXW4CDQbJgQcEJCuXJvvTBOjl7lf3AeleolXBG4PpCJIUV1qBAsY17YHsVSaacKh6xX6tu41eRH4JY5NwoHpiqEJQJcJoSIn5fRFjninU6IFj5/RwxtPCqv1BzUPo9NS97K5cwFgRiZtRYZ4WwhltOfYziPj8uEEa35THi680jHYgOXpcWbTwjjmHpPAFvRmbdEeF/mfm9UP/B1ha72DExFCgEfCHDPhPECoZ9IheGjv6BcQowZuCzJxDH1HpCRYFUFEpHeEqL1Mbb3uNT38EWAuxIi2jUimfmjI9ZEjvDXnfC6O+Pu8uIeQu8PX40hXMXvJ3fzVcS9VnDOxS2Hz6XTdarcCahCSxHgroRxddu4nSPsRU3dOW6dYBWu2VupxZRBymsj8iLkkEDyGiO+kbmX+aHXksUGNcGCSfXjQAS4TNhLIp+83YGMEDvm4ZUsBfemWNKr38PzwGq/ZGy+lsQFoe71Es6e+wSO+kbcrPSOQ9UPXQS4THizRFrr7UUtbJk9Xn4E+71zeZx0amvPgSJOKixoPn3oUkDJZb7JKeUmsEGfGd/zvSw8x6U+Nz8EuGdCnGMS2XGHJ4DZXi8IsmIBplh9n9vZlSnd9Z/fMJzBzBl+/rBq5gvJj58jM3SZQFgwm1OkEPCHAHclxE0i3zwEMjqYz1wPgkBIwIlsTA+sAwPq7xB6T7g4vTfDPGfkTyr4jAzH597dxYl09M9G3REuCAiZ8JbW4tiaq/Yxr1WLCdmXkIUJ2ZiMEAQvcG2Ci5NZBFWIKEnOiFSzelPthCsCQiYce0t3YciI1aXd6cJFsdWIERALzkbQtGWN2Zd41jv+2oZQ5P17izTBC1ybzKTl+eL4Ore1O2Bml6qtMERAyISQGI7g77g007ZVew3sDyUAXZSbSnpdi9AsBC+IOYPYM4NuEEdEkxhKkyoIDCVKn40x3D0k+GfmJgNVXxyPgJAJMYN7Yg4LJ/L3Q/G6w0KgUSOxQ0WDwRYQsWYQc8YqN6P/+rJWmNINgYGNqD1E81Pl4YWAFBOOuzWDYtrxJ46z0YpdlfxKPkohqTSLwNCv31FFS6Yx/R+LNWMVYRVcUZwmbH5qUr6wjqqgEJBiQqwm05MLhWgt2BevOx3ZvXHwWAiMYHQ9OyVPCwaMoMBW05/3RApXQZxFR/RjS7IihYAAASkmRBuzBkUIBTSwWPnjhhOCLpsWjx6QJlSDNL2j6TekTvtgUhnNvz+NzBa8NO2p8dv2A4VSEtpHewZHbeNrjOpaaCEgzYRIAIpEoCKC7SZeVD306qha4XbXuz3o354dUEKrZjUQcgUGg+CZ/587koVdwRRuyi1sKVSkEJBAQJoJ0davb48kvPwiemZbMkGxLktg8JWTyoXh5N3t3Z3BwhI+UKVlabJK8OLuy/PvC5vbcK2H3HV/1bvcMoGQuw/1N3wQ0MWEYJZ/Tj8unD28K57+3KVLWgpBypqfN+Yg9CcxhavRW6Pz6I1JRMjOFEx6d/sJqW0otsf3D7FOKBTMOau+goPAdT8y0tMVlPL3Lm0pZTY2s9tRLWGLnvbddZGM5mhxNV28dFnzxcOWMzbSXGW7uy/R3525p2j2mo5SLlIrJ5YQcmMoUgjIIqCbCdEwznyzPkmW6mNu/2J6/I4kqbpOrISEog+uSxB6SmDsgfzoOHHuakzBQUDXdtQ9JHgF4IWToVeykrQ01TJ1nVYHDPiLf8gxIIQxv5ugVkCnPcNQGI+hlRATw7Z06rst6bCkfn5Oej49Ozk1FDDRxogt6GPrO0qtgNBTQk0SLCltyICoBiqFgKGVEC0jDMRro8ukpKWoDxvQ334cGinCIITBGVCUEAfzAj03sFQxYCMU6n8DCBheCd19bT5US49tiJQSWuAeWJIsHFVJmRKhM9x9BOsv9IBQQ+hxl5qacIT+PJvpTBQpBAwiEDATot+lW8to3k55hTm8C57qU0yPjUpwjD4NwiYo4nlRBLwxhqH4W1MaHDMH7/Gp76GBgClMiKku2lSixfnUM22sivMGFJKd4R9gjA1bUD2rH+YInSWisykvCT1PXNX1hYBpTIjGjTAi7oPLzxO9gyvYAPPBHQneEBcvYxTypBhQHitVU4yAqUyI7owyIu7Fyz2jy0EaNyTdUPxPtCEihKSARzwccvUyH9rGFvT1e9QKKMJZlcsjYDoTouv1WVUs93uMtHTRe7iIWI3V8XbXYRpxU9eAvCMQGhFhCREVDUGZRDFhvMfi+R1CmJdnpqkzoCco6nPACFjChBgVIrA9sTFOl6DD32x6xbKIZfFEyed3UWpCJCFHPFKNIUOu24Ab6cmQHQnJWZAbAqHpERkbgXllVQ3++oceEGqIR0Z28VdFXVcIGEbAMibEiJAb4ndftKdPjhgen+03whJmwe3WnFfxw7GLxVDdX9mKjv/YnY6fIqo9d20mLBi0I7JBMhtL9+uPU9/4Bro5I75ZCYXCGStLmdDNQat2V9Afdnfm5jp013XSX5jmwRTNTAkojNJXZZ2mL2pSKDeAhDpQ8+AMfWdEFk0Ymh7Qlt1JmHuOpblgFRQmBLDwL/zTbhct/9YTZmd+hjvSvEHmekNs2JFDiwsyDUWOE6EEhpx0A9HDmc40ghCN37u8uWEVNCZ0A42z4st74mh7ofuKc/5i6wmHXDP9ATftzaO/ZKdJ29gGigaY8Tf9a7Wzc6BtBfv+5opV0JnQ/WChKlh0OJE2HSNpkzf3vWb/hdEAYsIgJIVb0BNoH0jTPW9bDH3B5hdswsr4RM/j9Os7E02bj5VzaO5Y2caE7odaVHGK3tnBAumeSCV45AeL8KJCDYKwhGZHRUOuxHnbYqn+YrBm47sfSJVhZJ/aVd6k0HdL1l1VWBHZzoSejxfZltYfukRbT6UFpM/zbNPzM+LjQNmO0PSIjG2mwAX9QCf5/Mp8QrArpxB0rgvH1NCY3lFOGZI2DoXV1cfhKCa8OiwirJC7DxbRkqI+hs5TePmQIRdbTeQHhH2qldmR4IHx5Po2hnIles7bis/Qc87tX6IFxrKifb1tKqyaIuZYJnQPE6nQRMbVT95QSD1c5ygyoi252rdmSvyIoOaIx0v1yEdtApJ8YuvYnS1WXeo2U1dmjOCms8wAobIhmukRUzXDAyPZiN1tIUTknNFMr2EjKayuBZ+djEKfIqmaJtw2wJaJYFs1Z41+BsTqNCyZ5fmIPECj+nejqE6un8Y/kjsP6M42ZJ+ltWXdpIJteTb20l4woH2MqLDyfBpXP4fFSggBy9+mXJ1UMD/96zqi1YfkewTzTWZqhCf6Bq5G2LIvn97MSaVdRfr6f/Mue86ICivfzyksmBCSzt1zzgTdakSvx8jVNN3Rvp+GwauQML78day0dBnn5bVTgys1VVj5f7jsdzn0CS5JK/Yww8sgEowOXsmSO19h9cN5zMw03Z5TnTggltbNqKNR3T2v+v8Mg/bfbErQFZzZf2viEoUVH6OwYEJMcdF3iZZlC/aGEGebuVvipIwMsOosnXjKcoEIzpT/fR/R45kF3sP1+R1R8hZ+UuyzzMyLCisxmmHDhJAaLtlaIZ6xCTWWflUupTaBXnL5xHIakn5V2mlC99wm5k5M0VZdbqWfChcdSaZ85vZlJSmsxOiGDRNiqn89lEQwgbKS4J61YL/YrxDn1LfG19GNqcHPSwE1hMyKiG38gr2RlsGlsJKDNqyYEGZic5lHP7ZAVtFbW6ulzNHm31pOA7u71Q5WjcZ/u1gRZc6ICPORUygZwdl/dz5LFFY+YbnmYlgxIWa3vZDo1XVF10zUjAuIOr68MFnYFDwZzPTEEHbop8IfR9eRvwxXnrcsyWGWAiaTwkoe0LBjQkz9zZwUS/JfbNiZSyKLFZwD/9fQOvknYGFNCGv+8xbxKgc9J7aOZpLCSh7NsGRCTB/WIdBNmUmrKm4UNvdk7xIP6xdhdd0VsNXGvB5eSTTmLeb/uJrpSJnhuz+C+gL6SR7hbPjx9lxeFd1lCit5yMKWCQEBGPGZpUdMOSMiMoDIMgVxYGYPM39r536csLucvaKFNq8t+aSZrSF+z4MbumpR0N31vP8+nskqC+gf9f0FNeSLFVbyWKFmWDMhJvhhWQZNfLuFFv0N343Slm+LhXrBqUkFlsVLdRs++/ohaPiB6MU9CVqkOV/zg78kjMN5tJdtGtCHGaSw0odi2DMh4IBietKHcTR3WS4h8rYRyrok3opOG2iNNNTNgGAUf6RtKbcd9ldM4xP4ac5x/zdHTvi9X0+BwkoPWs1gJXTDgdViRUk6jXg7kmBIjAQwemhfKb82/BYRE9VskmFAd591Zy64P17zd1xvtlcW0P4TLQQ15IoVVnI4uWsxlXLzIvziQxq4+lAyddrc6E7Uq2EX9UiKphTGRNfD0NMHHanmW70Map/H7krzcafxS3oYEL1gDv4IZTiz8qS7Ry5183e7rutHqvnVFVZN8Ql5JoTkr0eLPFpaoJ8BTrIjEJTVa2kwUYDCwd5R55oi6+Pbd0wpXlN3jnqy3IxRrrY+aly9pJcBoQ9EDg8e9WOhZjZyspxDyJPyCq8Fc8rCASs9KfREqIU8E2KC8+9PI9e6QnqdrW52URpnFUJkued2JLJgv1clp+N7MuntGN+JZfQyIIzEXxtVwoRCidzpd7sOUtJUbp1gFIYDVrwdhV4Mfe+99LbigPpP35tMi8bVSKfvNnvI/lY2GEg/9AkYsGmPWIEREgMM50lGGHDJhDoakMlnQPQR20KwT/QciIWfwwErMyMDhg0T4p1BRLEND1RJ2Uya/Y55xoXxbPuv+yP9JqSBtNOTEY0yoKyNarvWbMl0ACmsmj6EsGJCTK1LXIzmV7dgdKWU3WRTOMz/hqxQPHIzIhKe6AkWhS0oVkBZBuSNwSllzRWrsGNC9wsFc60vH72k+dbJGDG77zP6FwIXX+RH2NqkKhhx+OL20tHaQp0BFVZNHn94W8y0btVS82j/6pcNtPDWw1rEbRmmaAqR3Lfaet9MOFB8VNM6gOpEhgJhQMRydQKFA1Yw1DeLwnYl9AQI+SUm3NZLi8i2/9fn6dVBB+nBfkSI9WkWUyIxqS96ok+Vpp/zVab3WiAMiL5KXSP1dmlJ/XDAKqa9edCEhYpCDxwIfT9l5I3kjpAIr4SCspNUwc5kJ6rrmbE3M63xQc/u6+vj6tVL39W0orFXv175hDPqO+OKadaGJK6i/MoNfj4EyoBo9liNn8Z/uoyUcDPi9/MrSZQ2B6y68W03JFC6WqXZMeHVqTd+wioJaxKetQlqvsFUbDwF7Z7T/q1N0lOTAmJEMxgQng2HK/m2rQPaH6MZY/k/Nt74+freHLDqdh3SbUmGt/MFkse1ZrEd9Ziv4Y/YuvIIwhVvnZ9nfTcjwnRMD5nBgOjviyy+ATfq9I01J42UwgpoypNiQkms+l23i1sTgpW125jdF4f0MqJZDIghra/twxlZY9HgG5gNoAmksNIHomJCSbxGD0gT1nzvhHgrJ8uIZjIgrHa2FfKHDy+Q2EhzpA0KKz7W3qWKCb0R8fMdZ0ak0+ZRdrmci5SIEbFl/WhisWmKeFjt+JE3XZnOqCi5oMFXbuB8UFhxwPFRpJjQByj+Lk1OFJ+rXtmX7O/2JtfdjAiJpCfBAx7SVJSbQcji9BFz3RLRlP7MDcNEUljJg9nspaPyUBFNG9iJXmMvNG9VwWq4eHMpPTJSHCAYjPZxKtG+3DKmJqnV/Bn7pTN/IzKHATG3eduiueNFnQHMoEAkHUY9PaSwkkdLrYTyWFFCTATBBUlEf97XRVdAXTAedJeNDChqXb4cUdl8xaTxbuGRlBzvSwF/V1jJQ6iYUB4rreajvcqFVjbIevTk57FclYXObnVX35l7SiprFNQJ427N1N2+zA0KKxmUmlGMGTk4xLWQWwJJPkUE6xRPNyVRfTPLEdb+sfUdhdtQ9PlvvfPM7LpJWwqrJnD4/aJWQr/Q+C94ZmCtlPOw202Jp8T334uxkj3H6mj66li/PoyerSJXhYw6wfMevZ8VVmLEFBOKMbqmRueYSHpuEJPASBAYcdK7bXSdESWa9Vllxc5ymr3aJZWwBl4A84d5ufv7bDWwiworMX6KCcUY+ayBhC9je/gsuuYitqZTP4rVpKbXFJpwAXahCOM4d2scybpEzR9WqTlAm9C9sAmFFR8ixYR8fLilr951XhjZ2t0AhDXzd3ehCf8jp9B338f7i8xHkICO+h+XFsaRV9ezbGa3owSn52CSwso/2tf9yMh/sf0l/76B6INs/+NAyEPkgreLcvONuSm53YbGD8sguFfpIZihrdxTRx8Wp+h2jxqRypKXTmlg8VXNCfSrZ9wKK99oKSb0jYuuqwhpiIhqWO30EjL6Qlk+sMNx6hl1UVPYR0a0vRKXtKyqnipOnqE8ZvmSXdOWdp9JuyZym2yf6GfxZN9hFmXbCLSewupaBBUTXouJoSt4uX71eaLulclQZwZucgIDuoetsHIj0fhXnQmb4mH4G+J+wuZTlP3IcAcB3IjMwe890KB72xtAl9xbFVZN4VFM2BSPgL7BFnT1zPPSUtOAOpO4GfFznh1QQv/3XrLlDMgbosLqKjqKCa9iYconCFn+xgLYvDK8XEqhb0qnPhqBOdrqqeVatDkfxY64pLBqfAyKCS16HaEb2/hgLd3X27yIbjJDhRJ+3qBSWvPzBoLZWChQc8dKCWaC8JYezC+n/z4cp2WA4rlBBTKUTkzL8WBqIT02PJpcEeZ4yAcyHqP3NkesFBMafVsM3Ad1w8o9J+mjkm50/KSBBrxuwZkPetKJ0Qdo/LBMy1J1e3UblK/NCSvFhEF5pa7tBB7vm/bm0b4fB2vpvHnhFN13g+kyWB7QfsxfuH/LgzTipiSK6sQPY+i+N5T/hjtWyrPeprcTnuye3uzwtCiuPK0lEa1kyvmLly5rI3O1b00R7VpT17iO1DSb0Y02jTz43YY7VooJg/9O+ewRksKeyfrM13w21AwuhhtWSjraDF5aNUVnI6CY0NnPR42uGSCgmLAZPGQ1RWcjoJjQ2c9Hja4ZIKCYsBk8ZDVFZyOgmNDZz0eNrhkgoFQUDnnI+vWEDhm4DcM4y3SqFbWnqe70OaqtO0OXvm/UqXZg+tR2bVpTfExHios2MYunxXNUTGgxwP6av9YKBDpCvp6wuVrMHC+rpq+z8+hi7GA6cZro5Hk/WJ37Ce0iFlD3OqLOzIS2K+PF9vUHqV9mEkV2dKZ1kTJb88clFly3yh5ySueDNG5IeljZjlbV1tP23JN07PtuVONmrgCeCZgyNZKo2+WDNKxfOrVq1TKA1sy91fFM+PxnRG9n+Z800pVt/oX/cieUBMMzAOnUpieHvhdFXlE5ZdXF0YETRD9YFIKsA3P3ymhZSGN6R1NEB/s9ThzPhAuWb6OFhcP88hK2aDn/Zk/0ML+D+qmgoqqW/rwnUktNZpULk/cY4E/4VN9Smn1bnOO86b3H6vm9qrqWtpRH0v4y65jPsz98bs0OY0MiS+n2PvZi5XjpaFOjZW8YG9OUHS1m0XUdRoiGPXZZpBauMVgMCAjqWdp5xDed+HYLwgocCvTVwXL667eRlFUaPAYELheYPOfLyi70190tCCuwXeR4JvT0NPAH0q6D7CTuEIKU85erGqNhgyHsosOVLPz+h3FacGC7xiDqF1LOd/YRfVIapzGEqL5V5RD2LMmJo0+/KbGqC267jmfCnskxhNicPNr3wwBecdDKENwWeSc2Hg1al9yOsAK/tDdRC5F/uaGBWzfYhfmFxfT3rDaaL2Ww+/bVH86fW6sTaQULNB1srBzPhIgU3Q/Jazm06RjbWrCQ8HYSYmnO2pBEyDvhNFrNsgvPXtHC1nyJnpgcPlZCywuTHBmjFWfSJVktCKt0sMjxghkA8eq6Qnr9UDIXk4W3HqYJt/Xi1rGq0Mqo0kUVpzRH33CJwA0GXFGQSJcMLMzXsyUjmUnDIy8fp86tL1JCbCR17NCWXOwfqLz6FJ1iCvyiE9VUcaEt1bZKo4ozxp46+nnwxvPUTmeKAiO9hQQT4iWftiaROz+7clKo/Arcx9KkEFtQrICndZ6Vu0QwHd/l/TT85gzdTFFSUUs7j9ZR3uUU3f2ms1Ais/paL3kPCSbEkxzyBvulYwdoHq2dVh7UMH8QwuAMqGcLikQwc/sV0tA+ybypSJVhC750WyW9np0olZPQ3SiyMr34gGReN/dNAf7F9g5nwKqz8g2B+YZ2KqS+mcnyN/mpeZFh9eXBSvr6VKIuIVDG9UfpodHWYhUyTPjKmgJ6MyfFD8SNl4cmE70znVvF1EJIQWWFMG2ZgcYz/UrpkZEsSpPJhPyEf9iuLz3agtGVQU2PBikoJLYy1JIljBoaVUp3IKKVyVR7qo4+L3Zp+kjZpid0q6TBmbGy1XXXc7xgxj2jGYM7ERTzPNpeSPR5dnAkI9ADyjIg8lN8OLnSEgYEHoi4hlD3iPotkiS78Zu3LZZKy63P1Iv+oAeUZUBY/jzUs9ISBsRYYD96PwvIfHeXcsIZU4Y2lsbSiQrrsJIchsxQra0Dpf1olmNdRL//Korq6g2exkWN/1QOS5gXd8tFt0Y2JOSnyEy27pfUPWxEsl46qU4q/D50mPO2xbhvtewvLGG+rJDDCsKQX/Q/TyldrMfqthvjaFavOs1qRjR5KPU/K7UOq5BhQgD1m75iqwacG3+/2Vp7QJiiySji7UhHNrC7i5ZNKCdsf0X0BVPtIPaplQRTNLzEIgqmNNI9lvQuLprZo5yw/RVRDlsI4clhBYUUEyK3gkye+LXfkWWWIjAF+4jp3USELahdCTmB01v3nBJu3zGHv2SniaZiuBymYNC7iQhb0GCpA7zHktY1jqZnnNJcn7zLvL/vPm0NViHFhABl7uBaqXPPK1mJtD7L/H08ckqIbEGxCr0+ptLWfIBD0jvS3P5iMyyc1TbsyPF+30z5Dm8IkScEVqFJKZW6VQ+mDPCnRnomdaRhUWKsYN62Lct8rEKOCVMTImlORqHwGYBR/mVTjKmMCH9ArLIighQ0GGdA0TjmjE7UclWI6i0uyBRV0V0Of0C4I4kIUtBgnAFF47jr5kTN31BU7/Bl87EKOSYESP9ydxIh/56I3Iz47naJt0HUGCtHMhfRKgg9oBVqCInh+awyf1i1cFu6ly0C8PQ3k+CQK1oFoQe0Qg1hdB5jE6uF29LCk0Tw9DeTQpIJYU/66u2VUsIHMM1z2+LpufePBmxfimxKIoIi3kkEL5TJN4hHtCqL7bVMJHjEiwiKeCdR1/ho6iuwU8Z4v843F6uQZEIAge3e/761Ah+l6N3jPWjquy1p/1EJSYGPFrFSiNKZYRU0wxLGR/cBXXqib61wNfyihm8IoWcAWClEISmwCpphCaNnXDJ1B8fUClfDsuvMwwpjClkmxOCnDOpMj2cW4KMUQQhx3+oEmrssl6Dr00MyovwZ8fv1NBm0ujhHD0vmd5fLZFiVteboV2VE+bAFdSIldo6kNCbZ5hGMwhHlzSwKaSYECHMnptDUhCPSeGB7uqIknUa8HUnzVuRJn4WQR5BHsFQZPyyDV8XWsnsiDwj733WoSFhHpgKiovEIliowxnYqJVwUY5Wdaw5WwCDkmRCTeHlmGo3viU/ydJEpkJcWpNHYd6Np2rJGvSJPOCEyu4JiHim7nEqj+ovPaPsrW5kyfIjyeQTFfDBchHhj4JUN6CXGqvSsOVhhHOz3O/QJgpr/N4Go44U8jbH0zgjSwb0licwLnQi53+FE3OWHPIr8sZw6d2q0vimp68ttdmCH46xc/PBgzf8t+xWtOXWGojq2p5vSu+oOvwdTsAN5ZVrQ24yUBEpNFIuKYV8KiTLvx+T4jxJ2gR4oIPjuCebDd/7CVYfqqpP1LC5oH49a136EP6AMVtfeGZwrsC+N70BajFN/PV6O0IeVv3ZwPSyY0D3B+fenUY+tZfTC7gShKsF9j/ffk8yhGuZcRGmN/wrxWUw9o8ROcnBoXcuYve4C2mZ0jgUaYkfT8Ykl1Ks7W0olaO3uItpT35Uu/8CCaDL6ilnvZLKz7tRMsQMqrHi4THhKYgCsCn4E1h+PpNzqtuwb/ukjOOQ6nWLYby9vRRcJnvTMLyy2o54Tnj08gZaNK6JEl+dV6z+nMOEHj/DiflAIBmxaC99xHeUi2n64gnaeAgM2rQm7xg9zxFvhLnWbm97o9a1KQtagBWfKAQN63azjKzzinU7nj23mDlGvYzKvsbBjQkx20A1dad3MM3Qfc1kJFkVG8FeEzTl1fg2ZYeCMchHtqunstwoYMb+ELYkcEoWPlDFK/yK7Spdjrq/hICSF00mUy0LGKF12jmHJhJi8K6I9/Wkc0fv3FklZ18gC5q9elIv/Yp1uzdcticoRAUy0BTpSYEwH6m9Ovq6f/FlXX5d1XXPHhNF1UxhXDlsmdD8zrIprft6gObwiZL5dJHKXEZVD+IR8Cjxq+bOwOuLzphpWZWHPhHhaeIHh8IqcFf91Ww6NSCWhBYnep4yoaDyK/yf+KiUqR9tIaOKPoHvrk8a3uTrrIcX0147oeqfvi0RVhOWIiuZ0Os+k2MGiZsGEnmCOuzWTlkxjgV4frqdnB5TQ0GSSco3ybMPX55o6Jurk0IgbO2vh+nxVgd4M5SIaHuvfAXVgRBHFRHO4lDVe2RDN7SKOieVFNKp3DMH/LxBCWEKn0/ct+Vi5Wps3g2bHhG7oEmIiCK4+CAy1/8lL9M7dhfR09x2aMAeKd0hXZeO1oE3EBeURVmM4rvb8Wd4VT25sQfEd11EuIjigzkov18yq3FvTKHYUvSepgsYPEp/Vjv+Yyu1ChrmgZJ+VWUsIB2iUEBfU6fR9Bz5W7VuaNwN1iGBYtma56mB4zTO+TvtTY/IZf9Bn17QltsByCS/w7FE/6Qiv1PT+fqXA5wcwYto1/CZeRdHYPv6OWFqtgxX3YcaEUNafPneB/YBc/S1vy365/rizPdeNCYF5nU7FAmE1jDrMIsWEkkhmsJeOp+jefUYfM0l2a1o1mORVneUvXxkt9VmyQMrpS9KJDLk8RTciYzuZ4AVy+iIfq7YX9GHFm+/VnzBeLVVGohCY8ELILxMr3O2CckP2WWHXfeMNxKb30SpSVPMIXgiIjO1U2lckxiqpgzlYAQPFhJJvQv+WB4U1V+4R7GGELVhXYW0Z364V59+bM+JNGQByxIsIoemdSgWX+VhBEp2ZYg5WwEAxoeSbMOKmJKFa48PilIC99yWHo6valn35wlD9ZnqB9MtMEuo0kRsCxuxOo28O5Qstgsz2AlFMKPkWwAsBSWd4hDwLyA3hNHozJ1U4pDsjsoR1ZCvAC4Gn00Q7sL1Ebgin0b5zYqxiz5qHFeavmFDHWzAx+oCwNpKzIDeEU2jN3kraVcQfDbaiE4am8yvpLE28JMYKyVmQG8IptCunkvIFR1XNIbm/uVgpJtTxBowflilUVMMIGslZnED4MXj5a+ZEKKBJNzTa2gqq6SoecXMmdRD4vcIIGslZnED4MdhSIcYKvqYRHZj410RSTKgDTOgTpycXCu9AZlwkjLGb/mOTS5hODmN8GA6JJlMrhlVGy0Jhq4jQjYQxdtO6fNc1bma+xtS3o/lYKSb0hTTn2mPDo6USrszbEUd7jtm31UIquUbnZM5kWBHCglgVqHhM72iphCufnYij3FL7sFq5rYDgCiaiPkwgakWgYsWEIuS9yuEi9VTfUq+r135FDJvH1roIuSuCTYs2lQhzOWJMOAs+NUBwCApg8Ni2DYkUYwUn5fdzXITcFcGmT78poX1nU4Td4iw4rLM1WCkmFMJ/bYXZt8VJ+SjifDh9TRztzA2e1wBWwJf2MuNXCZqTUUgIh2gl3d4nTovXIuoD58N3cuPou+LgYYUVcGu1HFZ92xUSwiFaQYoJDaAKY+tXRpQL9YZo+hxThc1e09GyLFHu4UMI8+gHJLUC4h4EfUI6AasJWN2dWC7UG2Icl5gRyrLvOhJWJysJQpi3mZZBZgXEOBD0acIg67BSTGjwaSP9mEzWIzSPWKdYnWa8Z37OB7QPNcS977mkzoCoj6xRr40uk/LcQP1ACUbnMlmP0A/yV2B1emsPkRXeFlBDLPrWJXUGxHjg6TIhyVqsQiZnPQBxIv3rOpaJl0lDZQkOB8gNgdD0gW4FYQkDRbxID+g5NvT/5l01NKa3IMy0500mfV6RzdzGmDRUluCuhdwQCE0f6FYQljBQxIv0gJ5jQ/9T02qoX6q1WCkm9ETdwGfEfpm9ooUuRkA3YIZhycwXkEXGRmBeWOTIELwhYIwNW9BjNTJ3NK0DR2b4UdpBwGpJVgtdjIBxghkQmh6RsRGYFxY5MgRvCBhjwxYU1kx6aXh0CSFlmtWkmNAEhM+cO0+PfNSGBRA23hjOaIgLirCEnlHREJICHvFwyIU/oJGXyT0qOxnQPQaETFx2sA0hxZhRwhkNcUERltAzKhpCUsAjHg658AcMJCxhsBgQGCgmNPomeN0HRnxyfRvaku9V4ICvWHVxfrVrBfSGAIy48rs2AcUu9W7TrO9YdXF+DcYK6B6zYkI3Eib8xXbr+ZX5hDRsTiEIYRaOsecMyMMAWC3bnE9HLjsHKwhhJqZafwb0xkUxoTciJnyHtHLetliSCaZrQnd+m8AWF1LQ1K5MuuFQgrRyY2ms38DIwRq2poZgUtBuScHHSjGhRU+5tLyKMWKMtNrAzGHAEgaKeOgBZQJImdm3kbZOVFTRZ6Ux0moDI334uweWMFDEQw9oF1aKCf09HZOuI7noX7LTuPFpTOpKawa2oDBFC1T9YeaYZNtCctHdp9O48Wlk25KpB1tQmKIFqv6Q6YtXRzEhDx0TyzbsyKHFBZkBSVD9DQcrH9yR4A1hlTG2v76tuL4tK4cOX84MSILqb1xY+eCOBG8IK4yx/fXLu66YkIeOBWXQ863KOk3IEY/gUEYJjIeQFPCIh0MuDMvDjaDn+zr/NCFHPIJDGSUwHkJSwCN+OHPINdsf0Oi43PcpJnQjYcNf5IhHimpkyEWCzuPMdhnpybwFOoiMjcC8CEiMsISIioagTE7ODGw2nMgRjxTVyJCLBJ015xr1gN7ZkRAZG4F5ERcUYQkRFQ1BmZycGVgxodlvi2pPIaATAbZQK1IIKATsREAxoZ3oq74VAgwBxYTqNVAI2IyAYkKbH4DqXiGgmFC9AwoBmxFQTGjzA1DdKwQUE6p3QCFgMwKKCW1+AKp7hYBiQvUOKARsRkAxoc0PQHWvEFBMqN4BhYDNCCgmtPkBqO4VAooJ1TugELAZAcWENj8A1b1CQDGhegcUAjYjoJjQ5gegulcIKCZU74BCwGYEFBPa/ABU9woBxYTqHVAI2IyAYkKbH4DqXiGgmFC9AwoBmxH4/zVJBtG6KavUAAAAAElFTkSuQmCC;fontSize=16;labelPosition=center;align=center;container=0;strokeWidth=0;fontStyle=0" parent="1" vertex="1">
          <mxGeometry x="240" y="90" width="99.12" height="100" as="geometry" />
        </mxCell>
        <mxCell id="Fmyp4jBVjyvhrkrw46Uf-1" value="" style="shape=image;verticalLabelPosition=bottom;labelBackgroundColor=default;verticalAlign=top;aspect=fixed;imageAspect=0;image=https://verdantfox.com/static/images/blog_uploaded/1626406400652388.png;fontSize=16;clipPath=inset(14.75% 7.33% 6.83% 6%);" parent="1" vertex="1">
          <mxGeometry x="393" y="250" width="172.66" height="72.38438461538462" as="geometry" />
        </mxCell>
        <mxCell id="NL5H4TUP4hmUaPjxmSiR-2" style="rounded=0;orthogonalLoop=1;jettySize=auto;html=1;exitX=0.5;exitY=1;exitDx=0;exitDy=0;entryX=0;entryY=0.5;entryDx=0;entryDy=0;entryPerimeter=0;dashed=1;strokeColor=#82b366;fontSize=16;fillColor=#d5e8d4;" parent="1" source="NL5H4TUP4hmUaPjxmSiR-1" target="NfZsoAEmL5FZV4OTpbK5-19" edge="1">
          <mxGeometry relative="1" as="geometry" />
        </mxCell>
        <mxCell id="NL5H4TUP4hmUaPjxmSiR-1" value="&lt;font style=&quot;font-size: 14px;&quot;&gt;Docker Image built automatically from Dockerfile&lt;br style=&quot;&quot;&gt;&lt;b&gt;or&lt;/b&gt;&lt;br style=&quot;&quot;&gt;existing image ID read from an environment variable&lt;/font&gt;" style="text;html=1;strokeColor=#82b366;fillColor=#d5e8d4;align=center;verticalAlign=middle;whiteSpace=wrap;rounded=0;labelBorderColor=none;dashed=1;fontSize=14;" parent="1" vertex="1">
          <mxGeometry x="50" y="340" width="140" height="120" as="geometry" />
        </mxCell>
      </root>
    </mxGraphModel>
  </diagram>
</mxfile>
